<svg version="1.1" id="Layer_1" xmlns="http://www.w3.org/2000/svg" x="0" y="0" width="124.72" height="124.72" style="enable-background:new 0 0 124.72 124.72" xml:space="preserve"><style>.st1{fill:#020202}</style><path class="st1" d="M121.28 37.56c-.41 1.06-1.44 3.26-3.76 4.54-1.67.92-3.39 1.04-3.96 1.05-2.08.03-4.16.04-6.24-.01-.68-.02-.92.14-.96.86-.2 3.38-.98 6.62-2.71 9.57-3.31 5.64-8.16 9.11-14.62 10.23-.87.15-1.15.41-1.17 1.35-.05 1.78.43 3.13 1.8 4.38 2.01 1.82 2.5 4.21 1.53 6.76-.98 2.55-2.94 3.94-5.64 4.07-2.5.12-5.01.09-7.51.01-3.36-.11-5.99-2.87-6.06-6.23 0-.15.01-.31-.01-.46-.08-1.02.45-2.39-.22-2.98-.57-.51-1.9-.18-2.9-.18-5.7-.01-11.4 0-17.23 0 .95 1.96 1.4 3.9.39 6.08-1.07 2.31-3.46 3.75-6.01 3.79-2.27.04-4.55.04-6.82-.01-3.47-.07-6.18-2.79-6.26-6.28-.04-1.83-.01-3.67-.01-5.77-3.44 2.48-7.21 2.2-10.93 2.19-5.32-.01-10.64-.01-15.96 0-1.18 0-2.12-.32-2.58-1.51-.44-1.15-.02-2.16 1.29-2.97 4.47-2.79 8.91-5.64 13.44-8.32 3.44-2.03 5.59-4.83 6.24-8.8.11-.65-.01-.94-.5-1.31-3.57-2.75-5.44-6.39-5.61-10.9-.04-1.12.41-1.9 1.37-2.47 2.77-1.67 5.78-2.25 9.05-1.93-1-3.19-.98-6.27.03-9.37.48-1.46 1.43-2.08 2.89-2.2 2.99-.25 5.83.21 8.56 1.76.3-1.27.36-2.49.74-3.64.5-1.51 1.21-2.9 2.12-4.2.56-.79 1.51-1.23 2.47-1.13 2.76.28 5.19 1.34 7.37 3.04.26.21.45.52.9.59 1.07-3.12 2.87-5.74 5.51-7.75 2.8-2.13 3.57-2.13 6.37.04 2.54 1.96 4.15 4.24 5.49 7.82 1.14-.95 2.3-1.82 3.62-2.44 1.5-.7 3.05-1.16 4.7-1.3.91-.08 1.79.34 2.33 1.08 1.6 2.2 2.57 4.63 2.73 7.36.05.8.23.95 1.01.65 1.7-.67 3.5-.82 5.33-.78 1.32.03 2.19.58 2.66 1.8.32.81.65 1.62 1.01 2.51.71-.9 1.37-1.79 2.18-2.56 4.98-4.69 12.93-4.63 17.75.22 2.47 2.49 4.76 4.96 5.35 5.91.91 1.45 1.5 2.77 1.87 3.73l-.43 4.11zM13.84 65.81c4.6 0 8.94.05 13.27-.03 1.23-.02 2.37-.63 3.37-1.38 1.57-1.19 2.76-2.57 2.41-4.75-.08-.49-.05-1.01.02-1.5.21-1.62 1.81-2.53 3.26-1.86 1.05.49 1.35 1.36 1.35 2.46-.02 4.9-.01 9.79-.01 14.69 0 1.77.57 2.33 2.37 2.33 1.93 0 3.86-.02 5.78.01.97.02 1.8-.18 2.16-1.17.34-.94-.16-1.6-.85-2.2-1.66-1.42-2.6-3.24-2.74-5.41-.1-1.46-.06-2.93-.02-4.39.04-1.31 1.05-2.28 2.28-2.29 1.22-.01 2.24.96 2.32 2.26.04.69.08 1.39 0 2.08-.11.97.15 1.28 1.21 1.27 6.51-.06 13.03-.03 19.55-.03 2.38 0 2.38 0 2.39-2.38 0-.54-.01-1.09.13-1.6.3-1.08 1.46-1.76 2.51-1.58 1.17.2 1.97 1.15 1.97 2.48.02 3.55 0 7.09.01 10.64 0 1.74.55 2.3 2.25 2.31 1.97.01 3.93-.02 5.9.01.96.01 1.78-.18 2.14-1.18.36-.97-.19-1.6-.86-2.19-1.84-1.62-2.76-3.66-2.75-6.11.01-2.51-.01-5.01 0-7.52.01-1.67.82-2.64 2.2-2.68 1.41-.05 2.31.85 2.41 2.5.03.61.12.77.78.62 5.33-1.15 9.15-4.19 11.54-9.06 1.42-2.88 1.46-6.03 1.8-9.12.2-1.82.95-2.49 2.78-2.5 2.78-.01 5.55-.02 8.33.01 1.67.02 2.94-.63 3.65-2.14.72-1.54.27-2.92-.83-4.14-1.34-1.49-2.67-2.99-4.01-4.48-4.34-4.83-11.3-3.79-14.03 2.11-2.1 4.53-4.18 9.07-6.26 13.61-.49 1.07-1.2 1.82-2.46 1.72-1.25-.09-1.84-.9-2.18-2.04-3.89-12.75-15.58-20.42-28.8-18.95-14.46 1.61-26.04 11.77-29.3 25.94-1.17 5.1-3.79 8.89-8.32 11.47-2.22 1.26-4.35 2.69-6.72 4.16z"/><path d="M13.84 65.81c2.37-1.48 4.5-2.9 6.72-4.16 4.53-2.57 7.15-6.37 8.32-11.47C32.13 36 43.72 25.85 58.18 24.24c13.22-1.48 24.9 6.2 28.8 18.95.35 1.14.94 1.95 2.18 2.04 1.26.09 1.97-.66 2.46-1.72 2.08-4.54 4.16-9.08 6.26-13.61 2.73-5.9 9.69-6.95 14.03-2.11 1.34 1.49 2.67 2.99 4.01 4.48 1.1 1.22 1.55 2.6.83 4.14-.71 1.51-1.98 2.16-3.65 2.14-2.78-.03-5.55-.01-8.33-.01-1.84.01-2.59.68-2.78 2.5-.34 3.09-.38 6.24-1.8 9.12-2.4 4.87-6.21 7.91-11.54 9.06-.66.14-.74-.01-.78-.62-.09-1.65-1-2.55-2.41-2.5-1.39.04-2.19 1.01-2.2 2.68-.01 2.51 0 5.01 0 7.52-.01 2.46.91 4.5 2.75 6.11.67.59 1.22 1.22.86 2.19-.37 1-1.18 1.2-2.14 1.18-1.97-.02-3.93 0-5.9-.01-1.7-.01-2.25-.57-2.25-2.31 0-3.55.01-7.09-.01-10.64-.01-1.33-.8-2.28-1.97-2.48-1.06-.18-2.21.5-2.51 1.58-.14.51-.12 1.06-.13 1.6-.01 2.38-.01 2.38-2.39 2.38-6.52 0-13.03-.03-19.55.03-1.07.01-1.32-.3-1.21-1.27.08-.68.05-1.39 0-2.08-.08-1.3-1.1-2.27-2.32-2.26-1.23.01-2.24.98-2.28 2.29-.04 1.46-.07 2.93.02 4.39.14 2.17 1.08 3.99 2.74 5.41.7.6 1.2 1.26.85 2.2-.36.98-1.2 1.18-2.16 1.17-1.93-.03-3.86-.01-5.78-.01-1.79 0-2.37-.56-2.37-2.33 0-4.9-.01-9.79.01-14.69 0-1.09-.3-1.97-1.35-2.46-1.44-.67-3.05.24-3.26 1.86-.06.49-.09 1.01-.02 1.5.34 2.18-.84 3.56-2.41 4.75-1 .75-2.15 1.36-3.37 1.38-4.33.08-8.67.03-13.27.03zm91.65-31.64c1.31.01 2.35-1.03 2.33-2.32-.02-1.23-1.07-2.27-2.29-2.28-1.26-.01-2.34 1.08-2.33 2.36.02 1.25 1.02 2.23 2.29 2.24z" style="fill:#fdfdfd"/><path class="st1" d="M105.49 34.17c-1.27-.01-2.26-.99-2.28-2.25-.02-1.28 1.06-2.37 2.33-2.36 1.22.01 2.27 1.06 2.29 2.28.01 1.3-1.03 2.34-2.34 2.33z"/><text transform="translate(3.145 117.3)" style="font-size:41.3928px;font-family:'Gotham-UltraItalic'">22lim</text></svg>